<mxfile host="app.diagrams.net" modified="2024-07-02T19:14:00.437Z" agent="Mozilla/5.0 (Windows NT 10.0; Win64; x64) AppleWebKit/537.36 (KHTML, like Gecko) Chrome/126.0.0.0 Safari/537.36" etag="UzZEJFZVKDOJ9b9w0Ra8" version="24.6.4" type="github">
  <diagram name="Page-1" id="uIOcr925N4HyDr-Os2Yl">
    <mxGraphModel dx="3475" dy="1423" grid="1" gridSize="10" guides="1" tooltips="1" connect="1" arrows="1" fold="1" page="1" pageScale="1" pageWidth="850" pageHeight="1100" background="#ffffff" math="0" shadow="0">
      <root>
        <mxCell id="0" />
        <mxCell id="1" parent="0" />
        <mxCell id="3ia5Z65vRRwdtdEv2KGp-1" value="&lt;font style=&quot;font-size: 24px;&quot;&gt;Create user&amp;nbsp;&lt;/font&gt;" style="rounded=0;whiteSpace=wrap;html=1;strokeColor=#0000FF;" vertex="1" parent="1">
          <mxGeometry x="10" y="40" width="170" height="80" as="geometry" />
        </mxCell>
        <mxCell id="3ia5Z65vRRwdtdEv2KGp-4" value="&lt;font style=&quot;font-size: 24px;&quot;&gt;Login user&lt;/font&gt;" style="rounded=1;whiteSpace=wrap;html=1;" vertex="1" parent="1">
          <mxGeometry x="-300" y="310" width="160" height="60" as="geometry" />
        </mxCell>
        <mxCell id="3ia5Z65vRRwdtdEv2KGp-9" value="&lt;font style=&quot;font-size: 24px;&quot;&gt;Access is Profile&lt;/font&gt;" style="rounded=1;whiteSpace=wrap;html=1;" vertex="1" parent="1">
          <mxGeometry x="610" y="310" width="210" height="60" as="geometry" />
        </mxCell>
        <mxCell id="3ia5Z65vRRwdtdEv2KGp-10" value="&lt;span style=&quot;font-size: 24px;&quot;&gt;Profile password change&lt;/span&gt;" style="rounded=1;whiteSpace=wrap;html=1;" vertex="1" parent="1">
          <mxGeometry x="610" y="450" width="210" height="60" as="geometry" />
        </mxCell>
        <mxCell id="3ia5Z65vRRwdtdEv2KGp-16" value="" style="endArrow=classic;html=1;rounded=0;exitX=0.965;exitY=0.225;exitDx=0;exitDy=0;exitPerimeter=0;" edge="1" parent="1">
          <mxGeometry relative="1" as="geometry">
            <mxPoint x="138.72727272727275" y="337" as="sourcePoint" />
            <mxPoint x="578" y="339.29" as="targetPoint" />
          </mxGeometry>
        </mxCell>
        <mxCell id="3ia5Z65vRRwdtdEv2KGp-19" value="&lt;font style=&quot;font-size: 18px;&quot;&gt;GET /profile&lt;/font&gt;" style="edgeLabel;html=1;align=center;verticalAlign=middle;resizable=0;points=[];" vertex="1" connectable="0" parent="3ia5Z65vRRwdtdEv2KGp-16">
          <mxGeometry x="-0.0097" y="2" relative="1" as="geometry">
            <mxPoint x="-21" y="-18" as="offset" />
          </mxGeometry>
        </mxCell>
        <mxCell id="3ia5Z65vRRwdtdEv2KGp-27" value="" style="endArrow=classic;html=1;rounded=0;" edge="1" parent="1">
          <mxGeometry relative="1" as="geometry">
            <mxPoint x="259" y="340" as="sourcePoint" />
            <mxPoint x="579" y="480" as="targetPoint" />
            <Array as="points">
              <mxPoint x="259" y="480" />
            </Array>
          </mxGeometry>
        </mxCell>
        <mxCell id="3ia5Z65vRRwdtdEv2KGp-28" value="&lt;font style=&quot;font-size: 18px;&quot;&gt;PUT /profile/password/&lt;/font&gt;" style="edgeLabel;resizable=0;html=1;;align=center;verticalAlign=middle;" connectable="0" vertex="1" parent="3ia5Z65vRRwdtdEv2KGp-27">
          <mxGeometry relative="1" as="geometry">
            <mxPoint x="51" y="-20" as="offset" />
          </mxGeometry>
        </mxCell>
        <mxCell id="3ia5Z65vRRwdtdEv2KGp-32" value="" style="endArrow=classic;html=1;rounded=0;exitX=1;exitY=0.5;exitDx=0;exitDy=0;entryX=0;entryY=0.5;entryDx=0;entryDy=0;" edge="1" parent="1" source="3ia5Z65vRRwdtdEv2KGp-4">
          <mxGeometry relative="1" as="geometry">
            <mxPoint x="110" y="360" as="sourcePoint" />
            <mxPoint x="35" y="340" as="targetPoint" />
          </mxGeometry>
        </mxCell>
        <mxCell id="3ia5Z65vRRwdtdEv2KGp-34" value="&lt;font style=&quot;font-size: 18px;&quot;&gt;/&lt;font style=&quot;&quot;&gt;login&lt;/font&gt;&lt;/font&gt;" style="edgeLabel;html=1;align=center;verticalAlign=middle;resizable=0;points=[];" vertex="1" connectable="0" parent="3ia5Z65vRRwdtdEv2KGp-32">
          <mxGeometry x="-0.021" y="3" relative="1" as="geometry">
            <mxPoint y="-17" as="offset" />
          </mxGeometry>
        </mxCell>
        <mxCell id="3ia5Z65vRRwdtdEv2KGp-37" value="" style="sketch=0;outlineConnect=0;fontColor=#232F3E;gradientColor=none;fillColor=#232F3D;strokeColor=none;dashed=0;verticalLabelPosition=bottom;verticalAlign=top;align=center;html=1;fontSize=12;fontStyle=0;aspect=fixed;pointerEvents=1;shape=mxgraph.aws4.user;" vertex="1" parent="1">
          <mxGeometry x="30" y="310" width="120" height="120" as="geometry" />
        </mxCell>
        <mxCell id="3ia5Z65vRRwdtdEv2KGp-40" value="&lt;font style=&quot;font-size: 24px;&quot;&gt;Vote&lt;/font&gt;" style="rounded=1;whiteSpace=wrap;html=1;" vertex="1" parent="1">
          <mxGeometry x="610" y="650" width="220" height="60" as="geometry" />
        </mxCell>
        <mxCell id="3ia5Z65vRRwdtdEv2KGp-43" value="&lt;font style=&quot;font-size: 24px;&quot;&gt;List of Electator&lt;/font&gt;" style="rounded=1;whiteSpace=wrap;html=1;" vertex="1" parent="1">
          <mxGeometry x="1230" y="460" width="260" height="60" as="geometry" />
        </mxCell>
        <mxCell id="3ia5Z65vRRwdtdEv2KGp-49" value="&lt;font style=&quot;font-size: 24px;&quot;&gt;List of Electator&lt;/font&gt;" style="rounded=1;whiteSpace=wrap;html=1;" vertex="1" parent="1">
          <mxGeometry x="1230" y="650" width="260" height="60" as="geometry" />
        </mxCell>
        <mxCell id="3ia5Z65vRRwdtdEv2KGp-54" value="" style="endArrow=classic;html=1;rounded=0;" edge="1" parent="1">
          <mxGeometry relative="1" as="geometry">
            <mxPoint x="90" y="440" as="sourcePoint" />
            <mxPoint x="590" y="680" as="targetPoint" />
            <Array as="points">
              <mxPoint x="90" y="680" />
            </Array>
          </mxGeometry>
        </mxCell>
        <mxCell id="3ia5Z65vRRwdtdEv2KGp-55" value="&lt;font style=&quot;font-size: 18px;&quot;&gt;Role = &quot;Voter&quot;&lt;/font&gt;" style="edgeLabel;resizable=0;html=1;;align=center;verticalAlign=middle;" connectable="0" vertex="1" parent="3ia5Z65vRRwdtdEv2KGp-54">
          <mxGeometry relative="1" as="geometry">
            <mxPoint x="100" y="-20" as="offset" />
          </mxGeometry>
        </mxCell>
        <mxCell id="3ia5Z65vRRwdtdEv2KGp-58" value="&lt;font style=&quot;font-size: 18px;&quot;&gt;/&lt;font style=&quot;&quot;&gt;signup&lt;/font&gt;&lt;/font&gt;" style="endArrow=classic;html=1;rounded=0;exitX=0.5;exitY=1;exitDx=0;exitDy=0;" edge="1" parent="1" source="3ia5Z65vRRwdtdEv2KGp-1">
          <mxGeometry y="45" relative="1" as="geometry">
            <mxPoint x="90" y="210" as="sourcePoint" />
            <mxPoint x="95" y="280" as="targetPoint" />
            <Array as="points">
              <mxPoint x="95" y="200" />
            </Array>
            <mxPoint as="offset" />
          </mxGeometry>
        </mxCell>
        <mxCell id="3ia5Z65vRRwdtdEv2KGp-63" value="&lt;font style=&quot;font-size: 24px;&quot;&gt;List of Electator&lt;/font&gt;" style="rounded=1;whiteSpace=wrap;html=1;" vertex="1" parent="1">
          <mxGeometry x="1240" y="810" width="260" height="60" as="geometry" />
        </mxCell>
        <mxCell id="3ia5Z65vRRwdtdEv2KGp-65" value="" style="endArrow=classic;startArrow=classic;html=1;rounded=0;" edge="1" parent="1">
          <mxGeometry width="50" height="50" relative="1" as="geometry">
            <mxPoint x="1230" y="830" as="sourcePoint" />
            <mxPoint x="1210" y="480" as="targetPoint" />
            <Array as="points">
              <mxPoint x="880" y="830" />
              <mxPoint x="880" y="480" />
            </Array>
          </mxGeometry>
        </mxCell>
        <mxCell id="3ia5Z65vRRwdtdEv2KGp-66" value="" style="endArrow=classic;html=1;rounded=0;" edge="1" parent="1" source="3ia5Z65vRRwdtdEv2KGp-71">
          <mxGeometry width="50" height="50" relative="1" as="geometry">
            <mxPoint x="890" y="680" as="sourcePoint" />
            <mxPoint x="1220" y="680" as="targetPoint" />
          </mxGeometry>
        </mxCell>
        <mxCell id="3ia5Z65vRRwdtdEv2KGp-67" value="" style="endArrow=none;html=1;rounded=0;" edge="1" parent="1">
          <mxGeometry width="50" height="50" relative="1" as="geometry">
            <mxPoint x="840" y="680" as="sourcePoint" />
            <mxPoint x="880" y="680" as="targetPoint" />
          </mxGeometry>
        </mxCell>
        <mxCell id="3ia5Z65vRRwdtdEv2KGp-68" value="&lt;font style=&quot;font-size: 24px;&quot;&gt;GET /electors&lt;/font&gt;" style="whiteSpace=wrap;html=1;fillColor=#e1d5e7;strokeColor=#9673a6;" vertex="1" parent="1">
          <mxGeometry x="910" y="430" width="240" height="80" as="geometry" />
        </mxCell>
        <mxCell id="3ia5Z65vRRwdtdEv2KGp-72" value="" style="endArrow=classic;html=1;rounded=0;" edge="1" parent="1" target="3ia5Z65vRRwdtdEv2KGp-71">
          <mxGeometry width="50" height="50" relative="1" as="geometry">
            <mxPoint x="890" y="680" as="sourcePoint" />
            <mxPoint x="1220" y="680" as="targetPoint" />
          </mxGeometry>
        </mxCell>
        <mxCell id="3ia5Z65vRRwdtdEv2KGp-71" value="&lt;font style=&quot;font-size: 24px;&quot;&gt;POST&amp;nbsp; /vote/:electorId&lt;/font&gt;" style="whiteSpace=wrap;html=1;fillColor=#e1d5e7;strokeColor=#9673a6;" vertex="1" parent="1">
          <mxGeometry x="910" y="640" width="240" height="80" as="geometry" />
        </mxCell>
        <mxCell id="3ia5Z65vRRwdtdEv2KGp-73" value="&lt;font style=&quot;font-size: 24px;&quot;&gt;GET /vote/count&lt;/font&gt;" style="whiteSpace=wrap;html=1;fillColor=#e1d5e7;strokeColor=#9673a6;" vertex="1" parent="1">
          <mxGeometry x="933" y="790" width="240" height="80" as="geometry" />
        </mxCell>
        <mxCell id="3ia5Z65vRRwdtdEv2KGp-93" style="edgeStyle=orthogonalEdgeStyle;rounded=0;orthogonalLoop=1;jettySize=auto;html=1;" edge="1" parent="1" source="3ia5Z65vRRwdtdEv2KGp-92">
          <mxGeometry relative="1" as="geometry">
            <mxPoint x="90" y="680" as="targetPoint" />
          </mxGeometry>
        </mxCell>
        <mxCell id="3ia5Z65vRRwdtdEv2KGp-104" style="edgeStyle=orthogonalEdgeStyle;rounded=0;orthogonalLoop=1;jettySize=auto;html=1;entryX=0;entryY=0.5;entryDx=0;entryDy=0;" edge="1" parent="1" source="3ia5Z65vRRwdtdEv2KGp-110" target="3ia5Z65vRRwdtdEv2KGp-97">
          <mxGeometry relative="1" as="geometry" />
        </mxCell>
        <mxCell id="3ia5Z65vRRwdtdEv2KGp-106" style="edgeStyle=orthogonalEdgeStyle;rounded=0;orthogonalLoop=1;jettySize=auto;html=1;" edge="1" parent="1" source="3ia5Z65vRRwdtdEv2KGp-111">
          <mxGeometry relative="1" as="geometry">
            <mxPoint x="1370" y="1180" as="targetPoint" />
            <Array as="points">
              <mxPoint x="730" y="1190" />
              <mxPoint x="730" y="1190" />
            </Array>
          </mxGeometry>
        </mxCell>
        <mxCell id="3ia5Z65vRRwdtdEv2KGp-92" value="&lt;h1&gt;Electo management&lt;/h1&gt;" style="rounded=1;whiteSpace=wrap;html=1;" vertex="1" parent="1">
          <mxGeometry x="130" y="1160" width="350" height="60" as="geometry" />
        </mxCell>
        <mxCell id="3ia5Z65vRRwdtdEv2KGp-95" value="&lt;font style=&quot;font-size: 24px;&quot;&gt;delete electro&lt;/font&gt;" style="rounded=1;whiteSpace=wrap;html=1;" vertex="1" parent="1">
          <mxGeometry x="1380" y="1310" width="420" height="60" as="geometry" />
        </mxCell>
        <mxCell id="3ia5Z65vRRwdtdEv2KGp-96" value="&lt;font style=&quot;font-size: 24px;&quot;&gt;update exesting electro&lt;/font&gt;" style="rounded=1;whiteSpace=wrap;html=1;" vertex="1" parent="1">
          <mxGeometry x="1380" y="1160" width="430" height="60" as="geometry" />
        </mxCell>
        <mxCell id="3ia5Z65vRRwdtdEv2KGp-97" value="&lt;h1&gt;&lt;font style=&quot;font-size: 24px;&quot;&gt;create new electro&lt;/font&gt;&lt;/h1&gt;" style="rounded=1;whiteSpace=wrap;html=1;arcSize=0;" vertex="1" parent="1">
          <mxGeometry x="1380" y="1010" width="430" height="60" as="geometry" />
        </mxCell>
        <mxCell id="3ia5Z65vRRwdtdEv2KGp-102" value="&lt;font style=&quot;font-size: 24px;&quot;&gt;Role = &quot;Admin&quot;&lt;/font&gt;" style="rounded=1;whiteSpace=wrap;html=1;" vertex="1" parent="1">
          <mxGeometry x="-4.5" y="900" width="199" height="60" as="geometry" />
        </mxCell>
        <mxCell id="3ia5Z65vRRwdtdEv2KGp-108" style="edgeStyle=orthogonalEdgeStyle;rounded=0;orthogonalLoop=1;jettySize=auto;html=1;exitX=0.5;exitY=1;exitDx=0;exitDy=0;" edge="1" parent="1" source="3ia5Z65vRRwdtdEv2KGp-92" target="3ia5Z65vRRwdtdEv2KGp-92">
          <mxGeometry relative="1" as="geometry" />
        </mxCell>
        <mxCell id="3ia5Z65vRRwdtdEv2KGp-112" value="" style="edgeStyle=orthogonalEdgeStyle;rounded=0;orthogonalLoop=1;jettySize=auto;html=1;" edge="1" parent="1" source="3ia5Z65vRRwdtdEv2KGp-92" target="3ia5Z65vRRwdtdEv2KGp-111">
          <mxGeometry relative="1" as="geometry">
            <mxPoint x="480" y="1190" as="sourcePoint" />
            <mxPoint x="1370" y="1180" as="targetPoint" />
            <Array as="points" />
          </mxGeometry>
        </mxCell>
        <mxCell id="3ia5Z65vRRwdtdEv2KGp-111" value="&lt;font style=&quot;font-size: 24px;&quot;&gt;PUT /candidates/:candidateId&lt;/font&gt;" style="rounded=1;whiteSpace=wrap;html=1;fillColor=#d5e8d4;strokeColor=#82b366;" vertex="1" parent="1">
          <mxGeometry x="770" y="1160" width="410" height="60" as="geometry" />
        </mxCell>
        <mxCell id="3ia5Z65vRRwdtdEv2KGp-114" value="" style="edgeStyle=orthogonalEdgeStyle;rounded=0;orthogonalLoop=1;jettySize=auto;html=1;entryX=0;entryY=0.5;entryDx=0;entryDy=0;" edge="1" parent="1" source="3ia5Z65vRRwdtdEv2KGp-92" target="3ia5Z65vRRwdtdEv2KGp-110">
          <mxGeometry relative="1" as="geometry">
            <mxPoint x="480" y="1190" as="sourcePoint" />
            <mxPoint x="1380" y="1040" as="targetPoint" />
          </mxGeometry>
        </mxCell>
        <mxCell id="3ia5Z65vRRwdtdEv2KGp-110" value="&lt;font style=&quot;font-size: 24px;&quot;&gt;POST /candidates&lt;/font&gt;" style="rounded=1;whiteSpace=wrap;html=1;fillColor=#dae8fc;strokeColor=#6c8ebf;" vertex="1" parent="1">
          <mxGeometry x="860" y="1010" width="360" height="60" as="geometry" />
        </mxCell>
        <mxCell id="3ia5Z65vRRwdtdEv2KGp-116" value="" style="edgeStyle=orthogonalEdgeStyle;rounded=0;orthogonalLoop=1;jettySize=auto;html=1;entryX=0;entryY=0.5;entryDx=0;entryDy=0;" edge="1" parent="1" source="3ia5Z65vRRwdtdEv2KGp-92" target="3ia5Z65vRRwdtdEv2KGp-113">
          <mxGeometry relative="1" as="geometry">
            <mxPoint x="480" y="1190" as="sourcePoint" />
            <mxPoint x="1380" y="1340" as="targetPoint" />
            <Array as="points">
              <mxPoint x="670" y="1190" />
              <mxPoint x="670" y="1340" />
            </Array>
          </mxGeometry>
        </mxCell>
        <mxCell id="3ia5Z65vRRwdtdEv2KGp-113" value="&lt;font style=&quot;font-size: 24px;&quot;&gt;DELETE /electors/:electorId&lt;/font&gt;" style="rounded=1;whiteSpace=wrap;html=1;fillColor=#e1d5e7;strokeColor=#9673a6;" vertex="1" parent="1">
          <mxGeometry x="840" y="1310" width="450" height="60" as="geometry" />
        </mxCell>
      </root>
    </mxGraphModel>
  </diagram>
</mxfile>
